<svg version="1.2" baseProfile="tiny-ps" xmlns="http://www.w3.org/2000/svg" viewBox="0 0 496 512" width="25" height="25"><title>github-svg</title><style>tspan { white-space:pre }.shp0 { fill: #000000 } </style><path fill-rule="evenodd" class="shp0" d="M496 252C496 362.9 428.2 457.8 328.2 491C315.5 493.3 310.9 485.4 310.9 478.9C310.9 470.7 311.2 429 311.2 395.3C311.2 371.8 303.4 356.8 294.2 348.9C350.1 342.6 409 334.9 409 238.4C409 211 399.2 197.2 383.2 179.5C385.8 173 394.3 146.3 380.6 111.6C359.7 105 311.6 138.6 311.6 138.6C291.6 133 270.1 130.1 248.8 130.1C227.5 130.1 206 133 186 138.6C186 138.6 137.9 105.1 117 111.6C103.3 146.2 111.8 173 114.4 179.5C98.4 197.1 90.8 210.9 90.8 238.4C90.8 334.6 147.2 342.7 203.1 348.9C195.9 355.5 189.4 366.6 187.1 382.6C172.8 389.2 136.1 400.3 114.2 361.7C100.5 337.9 75.6 335.9 75.6 335.9C51.1 335.6 74 351.3 74 351.3C90.4 358.8 101.8 387.9 101.8 387.9C116.5 432.7 186.5 417.7 186.5 417.7C186.5 438.7 186.8 472.9 186.8 479.1C186.8 485.6 182.3 493.5 169.5 491.2C69.8 457.8 0 362.9 0 252C0 113.3 106.1 8 244.8 8C383.5 8 496 113.3 496 252ZM141 390.6C144 391.5 145.9 393.8 145.3 395.8C144.7 397.8 141.7 398.8 139.1 397.8C136.1 397.2 134.1 394.9 134.8 392.9C135.5 390.9 138.4 389.9 141 390.6ZM184.9 394.1C185.2 396.1 183.2 398 180.3 398.7C177.3 399.4 174.7 398.1 174.4 396.1C174.1 393.8 176.1 391.9 179 391.2C181.9 390.9 184.6 392.2 184.9 394.1ZM165.9 397.4C165.9 399.4 163.6 401 160.7 401C157.4 401.3 155.1 399.7 155.1 397.4C155.1 395.4 157.4 393.8 160.3 393.8C163.3 393.5 165.9 395.1 165.9 397.4ZM102.4 353.9C104.1 355.8 104.4 358.1 103.1 359.1C101.8 360.4 99.5 359.7 97.9 358.1C96.2 356.2 95.9 353.9 97.2 352.9C98.5 351.6 100.8 352.3 102.4 353.9ZM90.7 344.1C92.7 345.1 93.7 346.7 93 348C92.3 349.4 90.3 349.7 88.7 348.7C86.7 347.7 85.7 346.1 86.4 344.8C87.1 343.8 88.7 343.5 90.7 344.1ZM125.3 381.4C127.3 383.3 127.9 386.3 126.6 387.6C125.3 389.2 122.4 388.9 120.1 386.6C117.8 384.7 117.2 381.7 118.8 380.4C120.1 378.8 123.1 379.1 125.3 381.4ZM113 367.7C114.6 370 114.6 372.6 113 373.9C111.7 374.9 109 373.9 107.4 371.6C105.8 369.3 105.8 366.7 107.4 365.7C109 364.4 111.6 365.4 113 367.7Z" /></svg>