<svg version="1.2" baseProfile="tiny-ps" xmlns="http://www.w3.org/2000/svg" viewBox="0 0 512 512" width="25" height="25"><title>twitter-svg</title><style>tspan { white-space:pre }.shp0 { fill: #000000 } </style><path class="shp0" d="M459.37 151.72C459.69 156.26 459.69 160.81 459.69 165.36C459.69 304.08 354.11 463.92 161.14 463.92C101.69 463.92 46.46 446.7 0 416.81C8.45 417.79 16.57 418.11 25.34 418.11C74.39 418.11 119.55 401.54 155.61 373.28C109.48 372.3 70.82 342.09 57.5 300.51C64 301.48 70.5 302.13 77.32 302.13C86.74 302.13 96.16 300.83 104.93 298.56C56.85 288.81 20.79 246.58 20.79 195.57L20.79 194.28C34.76 202.07 51.01 206.94 68.22 207.59C39.96 188.75 21.44 156.59 21.44 120.2C21.44 100.71 26.64 82.84 35.74 67.25C87.39 130.92 165.04 172.51 252.1 177.06C250.48 169.26 249.5 161.14 249.5 153.02C249.5 95.19 296.28 48.08 354.44 48.08C384.65 48.08 411.94 60.75 431.11 81.22C454.82 76.67 477.56 67.9 497.7 55.88C489.91 80.24 473.34 100.71 451.57 113.71C472.69 111.43 493.16 105.58 512 97.46C497.71 118.25 479.84 136.77 459.37 151.72L459.37 151.72Z" /></svg>